<svg width="current" height="current" viewBox="0 0 553 146" fill="none"
    xmlns="http://www.w3.org/2000/svg">
    <path
        d="M41.016 131.096C33.2507 131.096 26.296 129.944 20.152 127.64C14.0933 125.421 9.31467 122.136 5.816 117.784C2.31733 113.432 0.568 108.141 0.568 101.912C0.568 97.6453 1.54933 92.9093 3.512 87.704C4.62133 84.8027 6.28533 82.1147 8.504 79.64C10.808 77.08 13.1547 74.9893 15.544 73.368C17.9333 71.7467 19.8107 70.8933 21.176 70.808H21.56C22.328 70.808 22.712 70.936 22.712 71.192C22.712 71.6187 22.1573 72.088 21.048 72.6C19.6827 73.1973 17.9333 74.4773 15.8 76.44C13.752 78.4027 11.7893 80.8347 9.912 83.736C8.03467 86.552 6.62667 89.752 5.688 93.336C5.34667 94.5307 5.09067 95.7253 4.92 96.92C4.83467 98.1147 4.792 99.2667 4.792 100.376C4.792 104.984 5.85867 108.952 7.992 112.28C10.2107 115.608 13.112 118.339 16.696 120.472C20.3653 122.691 24.376 124.312 28.728 125.336C33.08 126.445 37.432 127 41.784 127C43.7467 127 45.6667 126.872 47.544 126.616C49.5067 126.445 51.3413 126.147 53.048 125.72C60.5573 123.843 67.384 120.984 73.528 117.144C79.672 113.304 85.176 108.909 90.04 103.96C94.9893 99.0107 99.2987 93.8907 102.968 88.6C106.637 83.224 109.752 78.0613 112.312 73.112C114.872 68.1627 116.835 63.768 118.2 59.928C120.76 53.1013 123.32 46.8293 125.88 41.112C128.525 35.3947 130.915 30.5733 133.048 26.648C135.181 22.6373 136.717 19.864 137.656 18.328C133.048 19.352 128.099 20.5467 122.808 21.912C117.603 23.192 112.44 24.856 107.32 26.904C102.2 28.8667 97.3787 31.2987 92.856 34.2C88.4187 37.1013 84.6213 40.6 81.464 44.696C78.3067 48.792 76.088 53.6133 74.808 59.16C74.3813 61.1227 74.168 62.8293 74.168 64.28C74.168 68.0347 75.064 71.1067 76.856 73.496C78.7333 75.8 81.2507 76.952 84.408 76.952C86.2 76.952 88.0347 76.568 89.912 75.8C93.0693 74.52 95.5013 72.856 97.208 70.808C99 68.6747 100.237 66.4987 100.92 64.28C101.603 61.976 101.944 59.928 101.944 58.136C101.944 55.576 101.56 53.9973 100.792 53.4C100.792 53.3147 100.749 53.272 100.664 53.272C100.664 53.272 100.664 53.2293 100.664 53.144C100.664 52.7173 100.835 52.2907 101.176 51.864C101.603 51.4373 102.029 51.224 102.456 51.224C102.883 51.224 103.224 51.5227 103.48 52.12C104.504 54.168 105.016 56.3013 105.016 58.52C105.016 61.2507 104.333 63.9813 102.968 66.712C101.688 69.4427 99.896 71.8747 97.592 74.008C95.3733 76.1413 92.8987 77.72 90.168 78.744C87.608 79.768 85.048 80.28 82.488 80.28C77.88 80.28 73.912 78.744 70.584 75.672C67.3413 72.5147 65.72 68.4613 65.72 63.512C65.72 61.976 65.8907 60.5253 66.232 59.16C67.5973 53.1013 70.2 47.8107 74.04 43.288C77.88 38.7653 82.5307 34.8827 87.992 31.64C93.4533 28.3973 99.2133 25.7093 105.272 23.576C111.416 21.3573 117.475 19.5653 123.448 18.2C129.421 16.8347 134.84 15.7253 139.704 14.872C140.045 14.1893 140.728 13.1227 141.752 11.672C142.776 10.136 143.971 8.68533 145.336 7.31999C146.701 5.86933 148.067 4.93066 149.432 4.504C150.456 4.16266 151.565 3.992 152.76 3.992C153.955 3.992 154.936 4.29066 155.704 4.88799C156.472 5.48533 156.856 6.424 156.856 7.70399C156.856 10.1787 155.789 12.056 153.656 13.336C151.608 14.5307 149.347 15.5973 146.872 16.536C146.104 16.536 145.165 16.7493 144.056 17.176C143.032 17.5173 142.221 17.688 141.624 17.688C138.467 23.4053 135.864 29.0373 133.816 34.584C131.768 40.1307 129.891 45.592 128.184 50.968C126.563 56.2587 124.856 61.5493 123.064 66.84C121.272 72.0453 119.053 77.2933 116.408 82.584C113.763 87.7893 110.392 93.0373 106.296 98.328C99.2987 107.373 91.4053 114.499 82.616 119.704C73.912 124.909 64.9093 128.28 55.608 129.816C53.048 130.243 50.5307 130.541 48.056 130.712C45.5813 130.968 43.2347 131.096 41.016 131.096ZM143.8 14.36C147.128 13.6773 149.347 12.9093 150.456 12.056C151.651 11.2027 152.248 10.4347 152.248 9.752C152.248 9.24 152.077 8.856 151.736 8.6C151.395 8.25866 151.053 8.088 150.712 8.088C150.285 7.91733 149.645 8.21599 148.792 8.98399C147.939 9.66666 147.043 10.5627 146.104 11.672C145.251 12.696 144.483 13.592 143.8 14.36ZM128.311 111.64C131.468 105.581 134.455 99.5227 137.271 93.464C140.087 87.32 142.946 81.5173 145.847 76.056C147.554 72.984 148.962 70.8507 150.071 69.656C151.266 68.376 152.844 67.736 154.807 67.736C155.49 67.736 156.215 67.864 156.983 68.12C157.751 68.2907 158.519 68.376 159.287 68.376C159.799 68.376 160.183 68.3333 160.439 68.248C159.244 68.9307 157.708 70.6373 155.831 73.368C153.954 76.0133 152.034 79.0853 150.071 82.584C148.108 86.0827 146.359 89.368 144.823 92.44C146.444 90.4773 148.108 88.5147 149.815 86.552C151.607 84.5893 153.57 82.712 155.703 80.92C157.58 79.2987 159.543 77.5493 161.591 75.672C163.724 73.7093 165.815 72.0453 167.863 70.68C169.911 69.3147 171.703 68.632 173.239 68.632C173.836 68.632 174.22 68.6747 174.391 68.76C176.012 69.4427 176.823 70.552 176.823 72.088C176.823 72.6 176.61 73.368 176.183 74.392C175.074 77.2933 173.623 80.28 171.831 83.352C170.124 86.3387 168.503 89.368 166.967 92.44C168.247 90.904 169.826 89.0267 171.703 86.808C173.666 84.5893 175.628 82.6267 177.591 80.92C179.468 79.2133 181.858 77.4213 184.759 75.544C187.66 73.6667 190.519 72.0453 193.335 70.68C196.151 69.3147 198.412 68.632 200.119 68.632C200.716 68.632 201.143 68.6747 201.399 68.76C201.399 68.76 200.93 69.6133 199.991 71.32C199.052 72.9413 197.858 75.1173 196.407 77.848C195.042 80.4933 193.634 83.352 192.183 86.424C190.732 89.4107 189.41 92.312 188.215 95.128C187.106 97.8587 186.38 100.163 186.039 102.04C185.783 103.149 185.655 104.173 185.655 105.112C185.655 106.477 185.911 107.373 186.423 107.8C186.935 108.227 187.49 108.44 188.087 108.44C189.794 108.44 191.543 107.544 193.335 105.752C195.127 103.96 196.834 101.827 198.455 99.352C200.162 96.792 201.655 94.3173 202.935 91.928C204.215 89.4533 205.154 87.576 205.751 86.296C206.263 85.3573 206.775 84.888 207.287 84.888C207.799 84.888 208.055 85.2293 208.055 85.912C208.055 86.3387 207.927 86.808 207.671 87.32C206.647 89.2827 205.41 91.6293 203.959 94.36C202.594 97.0907 201.015 99.7787 199.223 102.424C197.431 104.984 195.426 107.16 193.207 108.952C191.074 110.659 188.77 111.512 186.295 111.512C184.503 111.512 182.668 110.915 180.791 109.72C178.999 108.525 178.103 106.307 178.103 103.064C178.103 101.272 178.487 99.096 179.255 96.536C179.852 94.8293 180.748 92.8667 181.943 90.648C183.223 88.4293 184.759 85.8693 186.551 82.968C187.404 81.5173 187.831 80.3653 187.831 79.512C187.831 78.488 187.319 77.976 186.295 77.976C185.442 77.976 184.247 78.4027 182.711 79.256C181.26 80.1093 179.426 81.6027 177.207 83.736C175.842 85.016 174.22 86.808 172.343 89.112C170.551 91.3307 168.716 93.7627 166.839 96.408C164.962 99.0533 163.34 101.656 161.975 104.216C160.61 106.776 159.714 109.037 159.287 111C158.007 111 156.983 110.488 156.215 109.464C155.447 108.355 155.063 107.075 155.063 105.624C155.063 105.368 155.063 105.112 155.063 104.856C155.063 104.6 155.106 104.301 155.191 103.96C155.618 101.315 156.3 98.84 157.239 96.536C158.178 94.232 159.244 91.8427 160.439 89.368C161.378 87.576 162.316 85.656 163.255 83.608C164.194 81.4747 164.663 79.8533 164.663 78.744C164.663 78.0613 164.407 77.72 163.895 77.72C163.298 77.72 162.316 78.1893 160.951 79.128C159.586 79.9813 157.708 81.5173 155.319 83.736C153.186 85.784 150.583 88.728 147.511 92.568C144.524 96.408 141.239 101.869 137.655 108.952C137.143 109.891 136.546 110.488 135.863 110.744C135.18 110.915 134.114 111 132.663 111C131.724 111 130.956 111 130.359 111C129.676 111.085 128.994 111.299 128.311 111.64ZM245.916 111.384C244.977 111.469 243.911 111.256 242.716 110.744C241.521 110.232 240.455 109.293 239.516 107.928C238.663 106.563 238.236 104.643 238.236 102.168C238.236 100.12 238.62 97.6453 239.388 94.744C238.364 96.3653 237.041 98.3707 235.42 100.76C233.799 103.064 232.049 105.112 230.172 106.904C228.551 108.44 227.015 109.549 225.564 110.232C224.113 110.915 222.791 111.256 221.596 111.256C219.377 111.256 217.585 110.275 216.22 108.312C214.855 106.264 214.172 103.619 214.172 100.376C214.172 96.9627 215.025 93.08 216.732 88.728C218.439 84.376 221.212 79.8533 225.052 75.16C227.527 72.1733 230.513 69.784 234.012 67.992C237.596 66.1147 241.095 65.176 244.508 65.176C246.471 65.176 248.348 65.5173 250.14 66.2C251.932 66.7973 253.511 67.8213 254.876 69.272C255.473 69.8693 255.772 70.552 255.772 71.32C255.772 71.832 255.559 72.2587 255.132 72.6C254.705 72.9413 254.151 73.0267 253.468 72.856C252.529 69.8693 250.524 68.376 247.452 68.376C246.001 68.376 244.337 68.8453 242.46 69.784C239.559 71.32 236.529 73.8373 233.372 77.336C230.3 80.8347 227.612 84.4613 225.308 88.216C224.967 88.728 224.412 89.7093 223.644 91.16C222.961 92.6107 222.279 94.232 221.596 96.024C220.913 97.816 220.444 99.5653 220.188 101.272C220.103 101.784 220.06 102.168 220.06 102.424C220.06 102.595 220.06 102.893 220.06 103.32C220.06 106.136 221.127 107.544 223.26 107.544C225.82 107.544 228.721 105.667 231.964 101.912C234.183 99.1813 236.188 96.3227 237.98 93.336C239.772 90.3493 241.607 87.1493 243.484 83.736C244.764 81.432 245.959 79.512 247.068 77.976C248.177 76.44 249.756 75.672 251.804 75.672C252.743 75.672 253.681 75.8 254.62 76.056C255.559 76.312 256.54 76.3547 257.564 76.184C256.881 76.8667 255.943 78.1467 254.748 80.024C253.639 81.9013 252.444 84.0347 251.164 86.424C249.884 88.8133 248.732 91.2453 247.708 93.72C246.684 96.1947 245.959 98.328 245.532 100.12C245.447 100.632 245.319 101.357 245.148 102.296C245.063 103.235 245.02 103.917 245.02 104.344C245.02 106.733 245.703 107.928 247.068 107.928C248.433 107.928 249.884 107.117 251.42 105.496C253.041 103.875 254.62 101.869 256.156 99.48C257.692 97.0907 259.1 94.7013 260.38 92.312C261.66 89.8373 262.684 87.832 263.452 86.296C263.793 85.4427 264.305 85.016 264.988 85.016C265.415 85.016 265.628 85.3147 265.628 85.912C265.628 86.168 265.5 86.6373 265.244 87.32C264.22 89.4533 262.983 91.8853 261.532 94.616C260.081 97.2613 258.503 99.864 256.796 102.424C255.089 104.899 253.297 106.989 251.42 108.696C249.628 110.317 247.793 111.213 245.916 111.384ZM299.236 111.896C296.932 111.64 294.841 110.573 292.964 108.696C291.172 106.733 289.935 104.131 289.252 100.888C289.167 100.291 289.081 99.7787 288.996 99.352C288.996 98.84 288.996 98.2853 288.996 97.688C288.996 94.2747 289.764 91.544 291.3 89.496C292.836 87.3627 294.244 86.2533 295.524 86.168C296.889 86.2533 298.553 85.9547 300.516 85.272C302.479 84.504 304.185 83.48 305.636 82.2C308.111 80.2373 309.348 78.232 309.348 76.184C309.348 74.0507 308.111 72.984 305.636 72.984C304.271 72.984 302.521 73.4533 300.388 74.392C298.34 75.3307 295.951 76.952 293.22 79.256C289.807 82.1573 286.265 86.04 282.596 90.904C282.084 92.0133 281.487 93.6773 280.804 95.896C280.121 98.0293 279.524 100.248 279.012 102.552C278.585 104.856 278.372 106.819 278.372 108.44C278.372 109.72 278.585 110.573 279.012 111H270.948C270.009 111 269.54 110.616 269.54 109.848C269.54 109.592 269.583 109.379 269.668 109.208C269.753 109.037 269.839 108.696 269.924 108.184C271.119 103.747 272.697 99.5653 274.66 95.64C276.623 91.7147 278.585 87.576 280.548 83.224C277.561 88.7707 274.831 93.6773 272.356 97.944C269.967 102.125 268.132 104.813 266.852 106.008C266.681 106.179 266.468 106.264 266.212 106.264C265.871 106.264 265.657 106.051 265.572 105.624C265.401 105.197 265.487 104.771 265.828 104.344C267.62 101.955 269.668 98.6693 271.972 94.488C274.361 90.3067 276.879 85.656 279.524 80.536C282.169 75.3307 284.857 70.0827 287.588 64.792C290.319 59.5013 292.964 54.5093 295.524 49.816C298.169 45.1227 300.559 41.1547 302.692 37.912C304.228 35.608 305.679 33.9867 307.044 33.048C308.409 32.024 309.817 31.512 311.268 31.512H311.908C312.676 31.512 313.529 31.64 314.468 31.896C315.492 32.152 316.431 32.1947 317.284 32.024C315.663 33.304 313.7 35.3947 311.396 38.296C309.092 41.1973 306.66 44.6533 304.1 48.664C301.54 52.6747 298.937 56.9413 296.292 61.464C293.732 65.9867 291.3 70.4667 288.996 74.904C288.143 76.6107 287.332 78.4027 286.564 80.28C285.796 82.1573 285.071 84.0347 284.388 85.912C286.18 83.6933 288.228 81.3893 290.532 79C292.836 76.6107 295.225 74.4347 297.7 72.472C300.26 70.424 302.777 68.9307 305.252 67.992C308.068 66.968 310.415 66.456 312.292 66.456C314.255 66.456 315.663 66.9253 316.516 67.864C317.455 68.8027 317.924 69.9973 317.924 71.448C317.924 73.0693 317.284 75.032 316.004 77.336C314.724 79.5547 312.975 81.4747 310.756 83.096C308.879 84.376 306.916 85.4853 304.868 86.424C302.82 87.3627 300.388 87.96 297.572 88.216C297.06 89.4107 296.676 90.648 296.42 91.928C296.249 93.1227 296.164 94.3173 296.164 95.512C296.164 98.84 296.932 101.784 298.468 104.344C300.004 106.819 302.009 108.056 304.484 108.056C305.679 108.056 306.959 107.715 308.324 107.032C309.775 106.349 311.268 105.197 312.804 103.576C314.511 101.869 316.217 99.4373 317.924 96.28C319.716 93.1227 321.508 89.6667 323.3 85.912C323.641 85.2293 324.025 84.888 324.452 84.888C324.964 84.888 325.22 85.2293 325.22 85.912C325.22 86.2533 325.092 86.68 324.836 87.192C322.361 92.9093 319.972 97.4747 317.668 100.888C315.449 104.216 313.273 106.733 311.14 108.44C309.092 110.061 307.087 111.085 305.124 111.512C303.161 111.939 301.199 112.067 299.236 111.896ZM344.581 111.512C341.424 111.512 338.565 110.488 336.005 108.44C333.53 106.392 332.293 103.277 332.293 99.096C332.293 95.256 333.232 91.16 335.109 86.808C336.986 82.3707 339.376 78.488 342.277 75.16C344.752 72.2587 347.525 69.8693 350.597 67.992C353.669 66.1147 356.57 65.176 359.301 65.176C361.178 65.176 362.8 65.688 364.165 66.712C365.616 67.8213 366.341 69.4 366.341 71.448C366.341 73.5813 365.53 75.928 363.909 78.488C362.288 81.048 359.984 83.4373 356.997 85.656C355.717 86.5947 354.096 87.4907 352.133 88.344C350.17 89.1973 348.208 89.9227 346.245 90.52C344.282 91.032 342.661 91.288 341.381 91.288C340.954 92.312 340.528 93.6773 340.101 95.384C339.76 97.0907 339.589 98.84 339.589 100.632C339.589 102.765 340.016 104.685 340.869 106.392C341.722 108.099 343.301 108.952 345.605 108.952C348.421 108.952 350.981 108.141 353.285 106.52C355.589 104.899 357.637 102.893 359.429 100.504C361.221 98.0293 362.714 95.5547 363.909 93.08C365.189 90.6053 366.213 88.5147 366.981 86.808C367.493 85.6133 368.176 85.016 369.029 85.016C369.456 85.016 369.669 85.2293 369.669 85.656C369.669 85.9973 369.541 86.424 369.285 86.936C368.09 89.496 366.81 92.2267 365.445 95.128C364.08 97.944 362.458 100.632 360.581 103.192C358.704 105.667 356.442 107.672 353.797 109.208C351.237 110.744 348.165 111.512 344.581 111.512ZM342.277 88.984C343.472 88.984 345.477 88.5573 348.293 87.704C351.109 86.7653 353.669 85.3147 355.973 83.352C358.192 81.3893 359.898 79.256 361.093 76.952C362.288 74.5627 362.885 72.5573 362.885 70.936C362.885 69.0587 362.202 68.12 360.837 68.12C359.813 68.12 358.405 68.8027 356.613 70.168C354.821 71.5333 352.602 73.8373 349.957 77.08C348.336 79.128 346.8 81.3467 345.349 83.736C343.898 86.1253 342.874 87.8747 342.277 88.984ZM488.331 121.112C485.942 120.685 484.064 119.576 482.699 117.784C481.334 116.077 480.352 113.901 479.755 111.256C479.243 108.696 478.987 106.008 478.987 103.192C478.987 100.291 479.158 97.432 479.499 94.616C479.926 91.8 480.352 89.3253 480.779 87.192C479.499 89.24 478.262 91.1173 477.067 92.824C475.958 94.4453 474.55 96.3653 472.843 98.584C468.235 104.472 463.67 108.824 459.147 111.64C454.71 114.541 450.614 115.992 446.859 115.992C443.36 115.992 440.459 114.669 438.155 112.024C435.851 109.464 434.699 105.709 434.699 100.76C434.699 97.176 435.339 93.208 436.619 88.856C437.899 84.4187 439.478 79.8107 441.355 75.032C443.318 70.2533 445.366 65.5173 447.499 60.824C449.718 56.0453 451.723 51.48 453.515 47.128C455.307 42.776 456.672 38.808 457.611 35.224C458.294 32.5787 458.806 30.0187 459.147 27.544C459.574 24.984 459.787 22.5093 459.787 20.12C459.787 17.1333 459.403 14.5733 458.635 12.44C457.867 10.2213 456.63 8.59999 454.923 7.576C453.046 6.38133 450.955 5.52799 448.651 5.01599C446.347 4.50399 443.958 4.24799 441.483 4.24799C436.79 4.24799 431.883 5.05866 426.763 6.67999C421.728 8.30133 416.779 10.52 411.915 13.336C403.894 18.0293 397.366 23.2773 392.331 29.08C387.296 34.8827 383.584 40.8133 381.195 46.872C378.891 52.8453 377.739 58.52 377.739 63.896C377.739 68.6747 378.592 72.984 380.299 76.824C382.006 80.664 384.438 83.6933 387.595 85.912C390.752 88.1307 394.464 89.24 398.731 89.24C401.974 89.24 405.344 88.5573 408.843 87.192C411.574 86.168 414.134 84.5467 416.523 82.328C418.912 80.1093 421.003 77.592 422.795 74.776C424.672 71.96 426.123 69.0587 427.147 66.072C428.256 63.0853 428.811 60.312 428.811 57.752C428.811 55.1067 428.128 52.9307 426.763 51.224C425.398 49.5173 423.136 48.664 419.979 48.664C419.296 48.664 418.571 48.7067 417.803 48.792C417.035 48.8773 416.224 49.0053 415.371 49.176C414.774 49.2613 414.219 49.3893 413.707 49.56C413.28 49.6453 412.939 49.688 412.683 49.688C412.256 49.688 412.043 49.56 412.043 49.304C412.043 48.9627 412.427 48.536 413.195 48.024C413.963 47.4267 414.518 47.0853 414.859 47C416.395 46.3173 417.803 45.848 419.083 45.592C420.448 45.336 421.686 45.208 422.795 45.208C426.123 45.208 428.555 46.3173 430.091 48.536C431.712 50.7547 432.523 53.5707 432.523 56.984C432.523 60.6533 431.627 64.664 429.835 69.016C428.043 73.2827 425.355 77.2933 421.771 81.048C418.272 84.8027 413.92 87.7893 408.715 90.008C404.534 91.8 400.48 92.696 396.555 92.696C391.776 92.696 387.552 91.4587 383.883 88.984C380.214 86.424 377.355 82.968 375.307 78.616C373.344 74.264 372.363 69.4 372.363 64.024C372.363 57.9653 373.728 51.6933 376.459 45.208C379.275 38.6373 383.584 32.28 389.387 26.136C395.275 19.9067 402.87 14.232 412.171 9.11199C417.291 6.29599 422.24 4.20533 427.019 2.84C431.883 1.47466 436.448 0.791992 440.715 0.791992C443.019 0.791992 445.323 1.00533 447.627 1.43199C450.016 1.85866 452.235 2.54133 454.283 3.48C458.806 5.35733 461.963 8.17333 463.755 11.928C465.632 15.6827 466.571 19.8213 466.571 24.344C466.571 27.8427 466.102 31.6827 465.163 35.864C464.31 39.7893 462.944 43.9707 461.067 48.408C459.275 52.8453 457.27 57.4107 455.051 62.104C452.918 66.7973 450.827 71.4907 448.779 76.184C446.816 80.8773 445.195 85.4 443.915 89.752C442.635 94.104 441.995 98.1573 441.995 101.912C441.995 105.411 442.635 108.099 443.915 109.976C445.28 111.768 447.03 112.664 449.163 112.664C451.894 112.664 455.136 111.213 458.891 108.312C462.731 105.411 466.742 100.973 470.923 95C473.824 90.8187 476.555 86.2533 479.115 81.304C481.76 76.3547 484.192 71.576 486.411 66.968C488.715 62.2747 490.763 58.264 492.555 54.936C494.006 52.4613 495.371 50.712 496.651 49.688C498.016 48.664 499.083 48.152 499.851 48.152C501.387 49.0053 502.155 50.2853 502.155 51.992C502.155 53.3573 501.728 54.936 500.875 56.728C500.107 58.52 499.168 60.3973 498.059 62.36C496.95 64.2373 495.968 66.1573 495.115 68.12C494.262 69.912 493.067 72.728 491.531 76.568C489.995 80.3227 488.63 84.4187 487.435 88.856C486.582 92.2693 485.814 95.7253 485.131 99.224C484.534 102.723 484.235 105.88 484.235 108.696C484.235 111.512 484.576 113.773 485.259 115.48C486.027 117.272 487.222 118.168 488.843 118.168H490.251C491.872 118.168 492.683 118.509 492.683 119.192C492.683 119.704 492.256 120.173 491.403 120.6C490.55 121.112 489.526 121.283 488.331 121.112ZM494.637 145.944C493.613 145.944 492.589 145.773 491.565 145.432C490.456 145.176 489.346 145.133 488.237 145.304C488.749 144.792 489.73 143.299 491.181 140.824C492.632 138.435 494.338 135.448 496.301 131.864C498.178 128.28 500.184 124.397 502.317 120.216C504.45 116.035 506.456 111.939 508.333 107.928C510.21 103.832 511.789 100.12 513.069 96.792C514.434 93.3787 515.288 90.6907 515.629 88.728C514.861 89.8373 514.093 90.4773 513.325 90.648C512.642 90.7333 512.472 90.4773 512.813 89.88C512.984 89.5387 513.325 88.728 513.837 87.448C514.434 86.0827 514.946 84.9307 515.373 83.992C516.056 82.2853 516.61 80.408 517.037 78.36C517.549 76.312 517.805 74.3493 517.805 72.472C517.805 71.2773 517.677 70.2533 517.421 69.4C517.165 68.5467 516.696 68.0773 516.013 67.992C516.013 67.992 516.482 67.9067 517.421 67.736C518.36 67.5653 519.341 67.3947 520.365 67.224C521.389 67.0533 522.072 66.968 522.413 66.968C522.925 66.8827 523.394 66.84 523.821 66.84C524.248 66.7547 524.632 66.712 524.973 66.712C525.741 66.712 526.253 67.0107 526.509 67.608C526.85 68.12 527.021 69.2293 527.021 70.936C527.021 73.0693 526.637 75.8 525.869 79.128C525.186 82.3707 524.376 85.2293 523.437 87.704C524.376 86.168 525.57 84.2053 527.021 81.816C528.557 79.4267 530.306 76.9947 532.269 74.52C534.232 72.0453 536.28 69.9973 538.413 68.376C540.546 66.6693 542.637 65.816 544.685 65.816C545.112 65.816 545.666 65.9013 546.349 66.072C548.738 66.6693 550.402 67.864 551.341 69.656C552.365 71.3627 552.877 73.4107 552.877 75.8C552.877 78.36 552.365 81.176 551.341 84.248C550.402 87.32 549.122 90.3493 547.501 93.336C545.88 96.2373 544.088 98.8827 542.125 101.272C539.736 104.259 536.877 106.648 533.549 108.44C530.221 110.232 526.808 111.128 523.309 111.128C520.152 111.128 517.208 110.317 514.477 108.696L502.317 139.288C501.122 141.848 499.97 143.597 498.861 144.536C497.752 145.475 496.344 145.944 494.637 145.944ZM519.213 108.44C521.602 108.44 524.29 107.331 527.277 105.112C530.264 102.893 533.122 100.077 535.853 96.664C538.669 93.1653 541.016 89.6667 542.893 86.168C544.173 83.7787 545.112 81.6027 545.709 79.64C546.306 77.592 546.605 75.8427 546.605 74.392C546.605 71.064 545.41 69.4 543.021 69.4C541.912 69.4 540.461 69.9973 538.669 71.192C536.962 72.3867 534.957 74.5627 532.653 77.72C530.178 81.1333 527.448 85.4427 524.461 90.648C521.56 95.768 518.573 101.187 515.501 106.904C516.525 107.928 517.762 108.44 519.213 108.44Z"
        fill="black" />
</svg>