<svg viewBox="0 0 24 24" fill="none" xmlns="http://www.w3.org/2000/svg">
    <path
        d="M15.0001 7H17.1379C18.1871 7 19.058 7.81089 19.1328 8.8575L19.8471 18.8575C19.9298 20.0152 19.0128 21 17.8521 21H6.14805C4.98737 21 4.07044 20.0152 4.15313 18.8575L4.86742 8.85751C4.94218 7.81089 5.81306 7 6.86234 7H9.0001M15.0001 7H9.0001M15.0001 7V5C15.0001 3.34315 13.657 2 12.0001 2C10.3432 2 9.0001 3.34315 9.0001 5V7M12 11V14M12 14V17M12 14H15M12 14H9"
        stroke="#111111" stroke-width="1.3" stroke-linecap="round" />
</svg>