<svg viewBox="0 0 24 24" fill="none" xmlns="http://www.w3.org/2000/svg">
    <path
        d="M15.0001 7H17.1379C18.1871 7 19.058 7.81089 19.1328 8.8575L19.8471 18.8575C19.9298 20.0152 19.0128 21 17.8521 21H6.14805C4.98737 21 4.07044 20.0152 4.15313 18.8575L4.86742 8.85751C4.94218 7.81089 5.81306 7 6.86234 7H9.0001M15.0001 7H9.0001M15.0001 7V5C15.0001 3.34315 13.657 2 12.0001 2C10.3432 2 9.0001 3.34315 9.0001 5V7M9 15.5C9.25 16 10.2 17 12 17C13.8 17 14.75 16 15 15.5M9.23428 11.2344H9.51553M9.23428 11.5156H9.51553M14.4843 11.2344H14.7655M14.4843 11.5156H14.7655M9.75 11.375C9.75 11.5821 9.58211 11.75 9.375 11.75C9.16789 11.75 9 11.5821 9 11.375C9 11.1679 9.16789 11 9.375 11C9.58211 11 9.75 11.1679 9.75 11.375ZM15 11.375C15 11.5821 14.8321 11.75 14.625 11.75C14.4179 11.75 14.25 11.5821 14.25 11.375C14.25 11.1679 14.4179 11 14.625 11C14.8321 11 15 11.1679 15 11.375Z"
        stroke="current" stroke-width="1" stroke-linecap="round" />
</svg>